/* XPM */
static char * springdale_icewm_start_small_xpm[] = {
"24 24 178 2",
"  	c None",
". 	c #7F3301",
"+ 	c #903D03",
"@ 	c #511E04",
"# 	c #722B00",
"$ 	c #C65C06",
"% 	c #C9630C",
"& 	c #8A4006",
"* 	c #602301",
"= 	c #944C23",
"- 	c #EA8826",
"; 	c #E28E2D",
"> 	c #D57B3B",
", 	c #6B3007",
"' 	c #3E1702",
") 	c #B4927E",
"! 	c #E39E5F",
"~ 	c #E0AC7B",
"{ 	c #B6A092",
"] 	c #8C6C5C",
"^ 	c #442100",
"/ 	c #B0A99B",
"( 	c #C9A374",
"_ 	c #CAB899",
": 	c #A9A192",
"< 	c #B8A69C",
"[ 	c #391600",
"} 	c #BA8D47",
"| 	c #E4B833",
"1 	c #EBCB45",
"2 	c #C7AA36",
"3 	c #A8926F",
"4 	c #451300",
"5 	c #D09818",
"6 	c #F2C405",
"7 	c #EFC613",
"8 	c #E7B629",
"9 	c #A67A3B",
"0 	c #4C1300",
"a 	c #D3B698",
"b 	c #E2B870",
"c 	c #E1B87C",
"d 	c #F2DBC7",
"e 	c #D3C1B9",
"f 	c #7F3512",
"g 	c #7C3B05",
"h 	c #B19F9D",
"i 	c #F2EAE4",
"j 	c #F8EEE5",
"k 	c #F9F0EA",
"l 	c #FFFDFB",
"m 	c #F9EDEB",
"n 	c #D48D7B",
"o 	c #8E3600",
"p 	c #4E1100",
"q 	c #D7CECA",
"r 	c #FEFBF8",
"s 	c #FFFFFD",
"t 	c #FFFFFE",
"u 	c #FFFFFF",
"v 	c #FDF8F7",
"w 	c #CDB4AD",
"x 	c #782F00",
"y 	c #7F4507",
"z 	c #845A4D",
"A 	c #EBDFDB",
"B 	c #FFFEFE",
"C 	c #FFFCFA",
"D 	c #E6D8D3",
"E 	c #B9715C",
"F 	c #A85504",
"G 	c #643C06",
"H 	c #964F12",
"I 	c #B9B3AF",
"J 	c #FAF9F7",
"K 	c #FDF7F6",
"L 	c #D0ADA7",
"M 	c #983B00",
"N 	c #914F03",
"O 	c #877571",
"P 	c #E3E1DF",
"Q 	c #FEFFFF",
"R 	c #E8D3D0",
"S 	c #B75F3F",
"T 	c #A85500",
"U 	c #5B0000",
"V 	c #A89894",
"W 	c #F5F4F2",
"X 	c #EFDDD8",
"Y 	c #B1705C",
"Z 	c #803700",
"` 	c #6E3805",
" .	c #7A4600",
"..	c #BCA69B",
"+.	c #FCF8F6",
"@.	c #FFFEFD",
"#.	c #EEDAD2",
"$.	c #C67858",
"%.	c #A74C00",
"&.	c #753902",
"*.	c #DA9E00",
"=.	c #DAAA70",
"-.	c #E8E0D9",
";.	c #FCFCFC",
">.	c #FFF6EB",
",.	c #E2C097",
"'.	c #A76436",
").	c #7F3C00",
"!.	c #8F6803",
"~.	c #F7B404",
"{.	c #F9B906",
"].	c #FEC009",
"^.	c #ECB500",
"/.	c #B79E75",
"(.	c #D8CECB",
"_.	c #FCF9F8",
":.	c #FDECD6",
"<.	c #E5A711",
"[.	c #AF7000",
"}.	c #A16B02",
"|.	c #DDA605",
"1.	c #FABA05",
"2.	c #FFC107",
"3.	c #FFC209",
"4.	c #FDC208",
"5.	c #D09F00",
"6.	c #9E7250",
"7.	c #ECE3DF",
"8.	c #FEFEFC",
"9.	c #F7E1CC",
"0.	c #EAAA00",
"a.	c #E5A501",
"b.	c #ECAD02",
"c.	c #FABC06",
"d.	c #FBBE0A",
"e.	c #F8B904",
"f.	c #FFC207",
"g.	c #FFC208",
"h.	c #F6BD00",
"i.	c #D7AE70",
"j.	c #F4ECE7",
"k.	c #FFFDFC",
"l.	c #FEFDFC",
"m.	c #FADFDA",
"n.	c #EBA47A",
"o.	c #ECAE00",
"p.	c #FEC007",
"q.	c #FEC107",
"r.	c #FFC307",
"s.	c #FDC108",
"t.	c #FEC202",
"u.	c #E4AE45",
"v.	c #D6B9A7",
"w.	c #E4D1CE",
"x.	c #E6CECA",
"y.	c #D6A9A2",
"z.	c #C07264",
"A.	c #BF6E16",
"B.	c #EBAF03",
"C.	c #FFC308",
"D.	c #FABD07",
"E.	c #DF9D02",
"F.	c #DFA102",
"G.	c #EEAF04",
"H.	c #F3B504",
"I.	c #C58C00",
"J.	c #855836",
"K.	c #8A605A",
"L.	c #936257",
"M.	c #894132",
"N.	c #6C1A00",
"O.	c #8A5600",
"P.	c #D99C02",
"Q.	c #F3B404",
"R.	c #E8A802",
"S.	c #A16C00",
"T.	c #A36B04",
"U.	c #B17703",
"                                                ",
"                      . + @                     ",
"                    # $ % & *                   ",
"                    = - ; > , '                 ",
"                    ) ! ~ { ] ^                 ",
"                    / ( _ : < [                 ",
"                    } | 1 2 3 4                 ",
"                    5 6 7 8 9 0                 ",
"                    a b c d e f g               ",
"                  h i j k l m n o               ",
"                p q r s t u v w x y             ",
"                z A B u u u C D E F G           ",
"              H I J u u u u t K L M N           ",
"              O P u u u u u u Q R S T           ",
"            U V W u u u u u u u X Y Z `         ",
"             ...+.u u u u u u @.#.$.%.&.        ",
"            *.=.-.;.u u u u u >.,.'.).!.        ",
"        ~.{.].^./.(._.u u u u :.<.[.}.|.        ",
"        1.2.3.4.5.6.7.@.u u 8.9.0.a.b.c.d.      ",
"        e.f.g.g.h.i.j.k.u l.m.n.o.p.q.r.s.      ",
"        1.2.f.f.t.u.v.w.x.y.z.A.B.C.q.D.        ",
"          E.F.G.H.I.J.K.L.M.N.O.P.Q.R.          ",
"                S.              T.U.            ",
"                                                "};
