/* XPM */
static char * maximizeO_xpm[] = {
"24 54 53 1",
" 	c #BDAE93",
".	c #A7AA96",
"+	c #B4AC94",
"@	c #90A797",
"#	c #A8AB95",
"$	c #8BA697",
"%	c #A7AB95",
"&	c #88A698",
"*	c #BAAD93",
"=	c #84A598",
"-	c #9BA896",
";	c #A3A995",
">	c #90A897",
",	c #91A798",
"'	c #BAAD94",
")	c #BBAE94",
"!	c #A9AA95",
"~	c #9AA896",
"{	c #87A598",
"]	c #83A598",
"^	c #8EA697",
"/	c #95A797",
"(	c #9CA896",
"_	c #B8AD93",
":	c #BCAE93",
"<	c #9FA995",
"[	c #A1A996",
"}	c #A4AA95",
"|	c #8AA697",
"1	c #94A797",
"2	c #85A598",
"3	c #ACAB94",
"4	c #ADAB95",
"5	c #B5AC94",
"6	c #A4AA96",
"7	c #87A698",
"8	c #B7AD94",
"9	c #8DA697",
"0	c #96A797",
"a	c #97A797",
"b	c #8BA797",
"c	c #B6AD94",
"d	c #B6AC93",
"e	c #9EA995",
"f	c #B8AD94",
"g	c #B1AB94",
"h	c #91A797",
"i	c #B0AC95",
"j	c #98A896",
"k	c #BBAD94",
"l	c #AFAC94",
"m	c #ACAB95",
"n	c #B7AD93",
"                        ",
"                        ",
"                        ",
"                        ",
"                        ",
"                        ",
"          .+            ",
"          @#            ",
"          $%            ",
"          &%            ",
"         *=-;>,'        ",
"      )!~{]=^/(_        ",
"      :<[^]}            ",
"         |123           ",
"        4=5678          ",
"       '9~ :,0          ",
"       abc  d&e:        ",
"      [>f    g2hi       ",
"     j~k      l&]hm     ",
"     n         f-$&+    ",
"                        ",
"                        ",
"                        ",
"                        ",
"                        ",
"                        ",
"                        ",
"                        ",
"                        ",
"                        ",
"                        ",
"                        ",
"                        ",
"          .+            ",
"          @#            ",
"          $%            ",
"          &%            ",
"         *=-;>,'        ",
"      )!~{]=^/(_        ",
"      :<[^]}            ",
"         |123           ",
"        4=5678          ",
"       '9~ :,0          ",
"       abc  d&e:        ",
"      [>f    g2hi       ",
"     j~k      l&]hm     ",
"     n         f-$&+    ",
"                        ",
"                        ",
"                        ",
"                        ",
"                        ",
"                        ",
"                        "};
