/* XPM */
static char * menuButtonI_xpm[] = {
"24 54 2 1",
" 	c #D5C4A1",
".	c #736B5C",
"                        ",
"                        ",
"                        ",
"                        ",
"                        ",
"                        ",
"                        ",
"                        ",
"       ..........       ",
"       ..........       ",
"                        ",
"                        ",
"       ..........       ",
"       ..........       ",
"                        ",
"                        ",
"       ..........       ",
"       ..........       ",
"                        ",
"                        ",
"                        ",
"                        ",
"                        ",
"                        ",
"                        ",
"                        ",
"                        ",
"                        ",
"                        ",
"                        ",
"                        ",
"                        ",
"                        ",
"                        ",
"                        ",
"       ..........       ",
"       ..........       ",
"                        ",
"                        ",
"       ..........       ",
"       ..........       ",
"                        ",
"                        ",
"       ..........       ",
"       ..........       ",
"                        ",
"                        ",
"                        ",
"                        ",
"                        ",
"                        ",
"                        ",
"                        ",
"                        "};
