/* XPM */
static char * menuButtonO_xpm[] = {
"24 54 2 1",
" 	c #BDAE93",
".	c #83A598",
"                        ",
"                        ",
"                        ",
"                        ",
"                        ",
"                        ",
"                        ",
"                        ",
"       ..........       ",
"       ..........       ",
"                        ",
"                        ",
"       ..........       ",
"       ..........       ",
"                        ",
"                        ",
"       ..........       ",
"       ..........       ",
"                        ",
"                        ",
"                        ",
"                        ",
"                        ",
"                        ",
"                        ",
"                        ",
"                        ",
"                        ",
"                        ",
"                        ",
"                        ",
"                        ",
"                        ",
"                        ",
"                        ",
"       ..........       ",
"       ..........       ",
"                        ",
"                        ",
"       ..........       ",
"       ..........       ",
"                        ",
"                        ",
"       ..........       ",
"       ..........       ",
"                        ",
"                        ",
"                        ",
"                        ",
"                        ",
"                        ",
"                        ",
"                        ",
"                        "};
