/* XPM */
static char * maximizeI_xpm[] = {
"24 54 61 1",
" 	c #D5C4A1",
".	c #A99C81",
"+	c #C4B494",
"@	c #706758",
"#	c #AB9D82",
"$	c #60594D",
"%	c #AA9C81",
"&	c #534D44",
"*	c #CFBF9D",
"=	c #443F3B",
"-	c #8C816C",
";	c #A0937A",
">	c #6F6657",
",	c #726959",
"'	c #D1C09E",
")	c #AFA185",
"!	c #897E6A",
"~	c #4E4841",
"{	c #3C3836",
"]	c #423E3A",
"^	c #696053",
"/	c #7D7461",
"(	c #8F836E",
"_	c #CBBA99",
":	c #D3C29F",
"<	c #988C74",
"[	c #9C9077",
"}	c #A2957B",
"|	c #D4C3A0",
"1	c #5D554A",
"2	c #7A705F",
"3	c #45403B",
"4	c #B3A588",
"5	c #B5A689",
"6	c #3F3B38",
"7	c #C6B696",
"8	c #514B43",
"9	c #CABA99",
"0	c #675F51",
"a	c #7E7462",
"b	c #837965",
"c	c #5E564B",
"d	c #C7B797",
"e	c #C7B796",
"f	c #544E45",
"g	c #958972",
"h	c #9B8F77",
"i	c #CBBB9A",
"j	c #BEAF90",
"k	c #48433D",
"l	c #726958",
"m	c #BDAE8F",
"n	c #857B67",
"o	c #8C806B",
"p	c #D0C09E",
"q	c #BAAB8D",
"r	c #564F46",
"s	c #736A5A",
"t	c #8D826D",
"u	c #5F574C",
"v	c #C5B595",
"                        ",
"                        ",
"                        ",
"                        ",
"                        ",
"                        ",
"          .+            ",
"          @#            ",
"          $%            ",
"          &%            ",
"         *=-;>,*        ",
"      ')!~{]^/(_        ",
"      :<[^{}            ",
"        |1234           ",
"        567}89          ",
"       *0! |,a|         ",
"      |bcd  efg|        ",
"      h>i    jklm       ",
"     nop      qr{s4|    ",
"     9         itu&v    ",
"                        ",
"                        ",
"                        ",
"                        ",
"                        ",
"                        ",
"                        ",
"                        ",
"                        ",
"                        ",
"                        ",
"                        ",
"                        ",
"          .+            ",
"          @#            ",
"          $%            ",
"          &%            ",
"         *=-;>,*        ",
"      ')!~{]^/(_        ",
"      :<[^{}            ",
"        |1234           ",
"        567}89          ",
"       *0! |,a|         ",
"      |bcd  efg|        ",
"      h>i    jklm       ",
"     nop      qr{s4|    ",
"     9         itu&v    ",
"                        ",
"                        ",
"                        ",
"                        ",
"                        ",
"                        ",
"                        "};
